<mxfile host="app.diagrams.net" agent="Mozilla/5.0 (Macintosh; Intel Mac OS X 10_15_7) AppleWebKit/537.36 (KHTML, like Gecko) Chrome/134.0.0.0 Safari/537.36" version="26.1.0">
  <diagram name="Page-1" id="OvJyWDLFz_YmrKm2HS_b">
    <mxGraphModel dx="1631" dy="1238" grid="1" gridSize="10" guides="1" tooltips="1" connect="1" arrows="1" fold="1" page="1" pageScale="1" pageWidth="827" pageHeight="1169" math="0" shadow="0">
      <root>
        <mxCell id="0" />
        <mxCell id="1" parent="0" />
        <mxCell id="5ubII6w7WkZbeg2jrxqk-1" value="Your App" style="rounded=0;whiteSpace=wrap;html=1;fillColor=light-dark(#CCFF99,var(--ge-dark-color, #121212));" vertex="1" parent="1">
          <mxGeometry x="10" y="40" width="830" height="60" as="geometry" />
        </mxCell>
        <mxCell id="5ubII6w7WkZbeg2jrxqk-2" value="Taudio" style="rounded=0;whiteSpace=wrap;html=1;fillColor=light-dark(#FFFF99,var(--ge-dark-color, #121212));" vertex="1" parent="1">
          <mxGeometry x="10" y="140" width="830" height="60" as="geometry" />
        </mxCell>
        <mxCell id="5ubII6w7WkZbeg2jrxqk-3" value="Etau" style="rounded=0;whiteSpace=wrap;html=1;fillColor=light-dark(#FFFF99,var(--ge-dark-color, #121212));" vertex="1" parent="1">
          <mxGeometry x="10" y="240" width="390" height="60" as="geometry" />
        </mxCell>
        <mxCell id="5ubII6w7WkZbeg2jrxqk-4" value="Flutter Sound v10.0" style="rounded=0;whiteSpace=wrap;html=1;fillColor=light-dark(#FFFF99,var(--ge-dark-color, #121212));" vertex="1" parent="1">
          <mxGeometry x="440" y="240" width="400" height="60" as="geometry" />
        </mxCell>
        <mxCell id="5ubII6w7WkZbeg2jrxqk-5" value="Tau_War" style="rounded=0;whiteSpace=wrap;html=1;fillColor=light-dark(#FFFF99,var(--ge-dark-color, #121212));" vertex="1" parent="1">
          <mxGeometry x="10" y="340" width="180" height="60" as="geometry" />
        </mxCell>
        <mxCell id="5ubII6w7WkZbeg2jrxqk-7" value="Tau_Web" style="rounded=0;whiteSpace=wrap;html=1;fillColor=light-dark(#FFFF99,var(--ge-dark-color, #121212));" vertex="1" parent="1">
          <mxGeometry x="220" y="340" width="180" height="60" as="geometry" />
        </mxCell>
        <mxCell id="5ubII6w7WkZbeg2jrxqk-9" value="Flutter Sound Web" style="rounded=0;whiteSpace=wrap;html=1;fillColor=light-dark(#FFFF99,var(--ge-dark-color, #121212));" vertex="1" parent="1">
          <mxGeometry x="440" y="340" width="180" height="60" as="geometry" />
        </mxCell>
        <mxCell id="5ubII6w7WkZbeg2jrxqk-10" value="Fluter Sound Core" style="rounded=0;whiteSpace=wrap;html=1;fillColor=light-dark(#FFFF99,var(--ge-dark-color, #121212));" vertex="1" parent="1">
          <mxGeometry x="660" y="340" width="180" height="60" as="geometry" />
        </mxCell>
        <mxCell id="5ubII6w7WkZbeg2jrxqk-11" value="" style="endArrow=classic;html=1;rounded=0;exitX=0.5;exitY=1;exitDx=0;exitDy=0;" edge="1" parent="1" source="5ubII6w7WkZbeg2jrxqk-5">
          <mxGeometry width="50" height="50" relative="1" as="geometry">
            <mxPoint x="310" y="660" as="sourcePoint" />
            <mxPoint x="100" y="440" as="targetPoint" />
          </mxGeometry>
        </mxCell>
        <mxCell id="5ubII6w7WkZbeg2jrxqk-12" value="" style="endArrow=classic;html=1;rounded=0;exitX=0.5;exitY=1;exitDx=0;exitDy=0;" edge="1" parent="1">
          <mxGeometry width="50" height="50" relative="1" as="geometry">
            <mxPoint x="260" y="400" as="sourcePoint" />
            <mxPoint x="260" y="440" as="targetPoint" />
          </mxGeometry>
        </mxCell>
        <mxCell id="5ubII6w7WkZbeg2jrxqk-13" value="" style="endArrow=classic;html=1;rounded=0;exitX=0.5;exitY=1;exitDx=0;exitDy=0;" edge="1" parent="1">
          <mxGeometry width="50" height="50" relative="1" as="geometry">
            <mxPoint x="350" y="400" as="sourcePoint" />
            <mxPoint x="350" y="440" as="targetPoint" />
          </mxGeometry>
        </mxCell>
        <mxCell id="5ubII6w7WkZbeg2jrxqk-14" value="" style="endArrow=classic;html=1;rounded=0;exitX=0.45;exitY=1.033;exitDx=0;exitDy=0;exitPerimeter=0;" edge="1" parent="1">
          <mxGeometry width="50" height="50" relative="1" as="geometry">
            <mxPoint x="530.5" y="401.98" as="sourcePoint" />
            <mxPoint x="530" y="440" as="targetPoint" />
          </mxGeometry>
        </mxCell>
        <mxCell id="5ubII6w7WkZbeg2jrxqk-15" value="" style="endArrow=classic;html=1;rounded=0;exitX=0.5;exitY=1;exitDx=0;exitDy=0;" edge="1" parent="1">
          <mxGeometry width="50" height="50" relative="1" as="geometry">
            <mxPoint x="710" y="400" as="sourcePoint" />
            <mxPoint x="710" y="440" as="targetPoint" />
          </mxGeometry>
        </mxCell>
        <mxCell id="5ubII6w7WkZbeg2jrxqk-16" value="" style="endArrow=classic;html=1;rounded=0;exitX=0.5;exitY=1;exitDx=0;exitDy=0;" edge="1" parent="1">
          <mxGeometry width="50" height="50" relative="1" as="geometry">
            <mxPoint x="790" y="400" as="sourcePoint" />
            <mxPoint x="790" y="440" as="targetPoint" />
          </mxGeometry>
        </mxCell>
        <mxCell id="5ubII6w7WkZbeg2jrxqk-17" value="Web Browser" style="text;html=1;align=center;verticalAlign=middle;whiteSpace=wrap;rounded=0;" vertex="1" parent="1">
          <mxGeometry x="70" y="440" width="60" height="30" as="geometry" />
        </mxCell>
        <mxCell id="5ubII6w7WkZbeg2jrxqk-18" value="DeskTop" style="text;html=1;align=center;verticalAlign=middle;resizable=0;points=[];autosize=1;strokeColor=none;fillColor=none;" vertex="1" parent="1">
          <mxGeometry x="230" y="440" width="70" height="30" as="geometry" />
        </mxCell>
        <mxCell id="5ubII6w7WkZbeg2jrxqk-19" value="Mobiles" style="text;html=1;align=center;verticalAlign=middle;resizable=0;points=[];autosize=1;strokeColor=none;fillColor=none;" vertex="1" parent="1">
          <mxGeometry x="320" y="440" width="60" height="30" as="geometry" />
        </mxCell>
        <mxCell id="5ubII6w7WkZbeg2jrxqk-20" value="Web Browser" style="text;html=1;align=center;verticalAlign=middle;whiteSpace=wrap;rounded=0;" vertex="1" parent="1">
          <mxGeometry x="500" y="440" width="60" height="30" as="geometry" />
        </mxCell>
        <mxCell id="5ubII6w7WkZbeg2jrxqk-21" value="iOS" style="text;html=1;align=center;verticalAlign=middle;resizable=0;points=[];autosize=1;strokeColor=none;fillColor=none;" vertex="1" parent="1">
          <mxGeometry x="690" y="440" width="40" height="30" as="geometry" />
        </mxCell>
        <mxCell id="5ubII6w7WkZbeg2jrxqk-22" value="Android" style="text;html=1;align=center;verticalAlign=middle;resizable=0;points=[];autosize=1;strokeColor=none;fillColor=none;" vertex="1" parent="1">
          <mxGeometry x="760" y="440" width="60" height="30" as="geometry" />
        </mxCell>
        <mxCell id="5ubII6w7WkZbeg2jrxqk-23" value="" style="endArrow=classic;html=1;rounded=0;exitX=0.5;exitY=1;exitDx=0;exitDy=0;entryX=0.5;entryY=0;entryDx=0;entryDy=0;" edge="1" parent="1" source="5ubII6w7WkZbeg2jrxqk-1" target="5ubII6w7WkZbeg2jrxqk-2">
          <mxGeometry width="50" height="50" relative="1" as="geometry">
            <mxPoint x="340" y="540" as="sourcePoint" />
            <mxPoint x="390" y="490" as="targetPoint" />
          </mxGeometry>
        </mxCell>
        <mxCell id="5ubII6w7WkZbeg2jrxqk-24" value="" style="endArrow=classic;html=1;rounded=0;" edge="1" parent="1" target="5ubII6w7WkZbeg2jrxqk-3">
          <mxGeometry width="50" height="50" relative="1" as="geometry">
            <mxPoint x="205" y="200" as="sourcePoint" />
            <mxPoint x="390" y="490" as="targetPoint" />
          </mxGeometry>
        </mxCell>
        <mxCell id="5ubII6w7WkZbeg2jrxqk-25" value="" style="endArrow=classic;html=1;rounded=0;entryX=0.5;entryY=0;entryDx=0;entryDy=0;exitX=0.759;exitY=1.05;exitDx=0;exitDy=0;exitPerimeter=0;" edge="1" parent="1" source="5ubII6w7WkZbeg2jrxqk-2" target="5ubII6w7WkZbeg2jrxqk-4">
          <mxGeometry width="50" height="50" relative="1" as="geometry">
            <mxPoint x="340" y="540" as="sourcePoint" />
            <mxPoint x="390" y="490" as="targetPoint" />
          </mxGeometry>
        </mxCell>
        <mxCell id="5ubII6w7WkZbeg2jrxqk-26" value="" style="endArrow=classic;html=1;rounded=0;entryX=0.539;entryY=-0.033;entryDx=0;entryDy=0;entryPerimeter=0;exitX=0.25;exitY=1;exitDx=0;exitDy=0;" edge="1" parent="1" source="5ubII6w7WkZbeg2jrxqk-3" target="5ubII6w7WkZbeg2jrxqk-5">
          <mxGeometry width="50" height="50" relative="1" as="geometry">
            <mxPoint x="320" y="530" as="sourcePoint" />
            <mxPoint x="390" y="490" as="targetPoint" />
          </mxGeometry>
        </mxCell>
        <mxCell id="5ubII6w7WkZbeg2jrxqk-27" value="" style="endArrow=classic;html=1;rounded=0;entryX=0.5;entryY=0;entryDx=0;entryDy=0;exitX=0.223;exitY=1.017;exitDx=0;exitDy=0;exitPerimeter=0;" edge="1" parent="1" source="5ubII6w7WkZbeg2jrxqk-4" target="5ubII6w7WkZbeg2jrxqk-9">
          <mxGeometry width="50" height="50" relative="1" as="geometry">
            <mxPoint x="540" y="310" as="sourcePoint" />
            <mxPoint x="390" y="490" as="targetPoint" />
          </mxGeometry>
        </mxCell>
        <mxCell id="5ubII6w7WkZbeg2jrxqk-28" value="" style="endArrow=classic;html=1;rounded=0;entryX=0.5;entryY=0;entryDx=0;entryDy=0;exitX=0.775;exitY=1.017;exitDx=0;exitDy=0;exitPerimeter=0;" edge="1" parent="1" source="5ubII6w7WkZbeg2jrxqk-4" target="5ubII6w7WkZbeg2jrxqk-10">
          <mxGeometry width="50" height="50" relative="1" as="geometry">
            <mxPoint x="340" y="540" as="sourcePoint" />
            <mxPoint x="390" y="490" as="targetPoint" />
          </mxGeometry>
        </mxCell>
        <mxCell id="5ubII6w7WkZbeg2jrxqk-30" value="" style="endArrow=classic;html=1;rounded=0;exitX=0.75;exitY=1;exitDx=0;exitDy=0;entryX=0.456;entryY=0.033;entryDx=0;entryDy=0;entryPerimeter=0;" edge="1" parent="1" source="5ubII6w7WkZbeg2jrxqk-3" target="5ubII6w7WkZbeg2jrxqk-7">
          <mxGeometry width="50" height="50" relative="1" as="geometry">
            <mxPoint x="370" y="540" as="sourcePoint" />
            <mxPoint x="420" y="490" as="targetPoint" />
          </mxGeometry>
        </mxCell>
      </root>
    </mxGraphModel>
  </diagram>
</mxfile>
